<?xml version="1.0" encoding="UTF-8" standalone="no"?>
<!-- Created with Inkscape (http://www.inkscape.org/) -->

<svg
   xmlns:dc="http://purl.org/dc/elements/1.1/"
   xmlns:cc="http://creativecommons.org/ns#"
   xmlns:rdf="http://www.w3.org/1999/02/22-rdf-syntax-ns#"
   xmlns:svg="http://www.w3.org/2000/svg"
   xmlns="http://www.w3.org/2000/svg"
   xmlns:sodipodi="http://sodipodi.sourceforge.net/DTD/sodipodi-0.dtd"
   xmlns:inkscape="http://www.inkscape.org/namespaces/inkscape"
   version="1.1"
   id="svg2"
   xml:space="preserve"
   width="21.333332"
   height="21.333332"
   viewBox="0 0 21.333332 21.333332"
   sodipodi:docname="gnotify_mono.svg"
   inkscape:version="0.92.4 (f8dce91, 2019-08-02)"><metadata
     id="metadata8"><rdf:RDF><cc:Work
         rdf:about=""><dc:format>image/svg+xml</dc:format><dc:type
           rdf:resource="http://purl.org/dc/dcmitype/StillImage" /><dc:title></dc:title></cc:Work></rdf:RDF></metadata><defs
     id="defs6"><clipPath
       clipPathUnits="userSpaceOnUse"
       id="clipPath18"><path
         d="M 0,16 H 16 V 0 H 0 Z"
         id="path16"
         inkscape:connector-curvature="0" /></clipPath><clipPath
       clipPathUnits="userSpaceOnUse"
       id="clipPath48"><path
         d="M 0,16 H 16 V 0 H 0 Z"
         id="path46"
         inkscape:connector-curvature="0" /></clipPath><clipPath
       clipPathUnits="userSpaceOnUse"
       id="clipPath64"><path
         d="M 0,16 H 16 V 0 H 0 Z"
         id="path62"
         inkscape:connector-curvature="0" /></clipPath><clipPath
       clipPathUnits="userSpaceOnUse"
       id="clipPath84"><path
         d="M 0,16 H 16 V 0 H 0 Z"
         id="path82"
         inkscape:connector-curvature="0" /></clipPath><clipPath
       clipPathUnits="userSpaceOnUse"
       id="clipPath114"><path
         d="M 0,16 H 16 V 0 H 0 Z"
         id="path112"
         inkscape:connector-curvature="0" /></clipPath><clipPath
       clipPathUnits="userSpaceOnUse"
       id="clipPath126"><path
         d="M 0,16 H 16 V 0 H 0 Z"
         id="path124"
         inkscape:connector-curvature="0" /></clipPath><clipPath
       clipPathUnits="userSpaceOnUse"
       id="clipPath138"><path
         d="M 0,16 H 16 V 0 H 0 Z"
         id="path136"
         inkscape:connector-curvature="0" /></clipPath><clipPath
       clipPathUnits="userSpaceOnUse"
       id="clipPath182"><path
         d="M 0,16 H 16 V 0 H 0 Z"
         id="path180"
         inkscape:connector-curvature="0" /></clipPath><clipPath
       clipPathUnits="userSpaceOnUse"
       id="presentation_clip_path"><rect
         id="rect2"
         height="27940"
         width="21590"
         y="0"
         x="0" /></clipPath></defs><sodipodi:namedview
     pagecolor="#ffffff"
     bordercolor="#666666"
     borderopacity="1"
     objecttolerance="10"
     gridtolerance="10"
     guidetolerance="10"
     inkscape:pageopacity="0"
     inkscape:pageshadow="2"
     inkscape:window-width="1920"
     inkscape:window-height="1163"
     id="namedview4"
     showgrid="false"
     inkscape:zoom="43.428958"
     inkscape:cx="10.666666"
     inkscape:cy="11.58771"
     inkscape:window-x="0"
     inkscape:window-y="0"
     inkscape:window-maximized="1"
     inkscape:current-layer="layer1" /><g
     id="g10"
     inkscape:groupmode="layer"
     inkscape:label="16px_icons"
     transform="matrix(1.3333333,0,0,-1.3333333,0,21.333333)"><g
       id="g4726"
       transform="matrix(0.66772581,0,0,-0.66916921,-0.05204622,15.997438)"><g
         transform="translate(-98.076089,-72.38934)"
         id="layer1"
         inkscape:label="Ebene 1"
         style="fill:#999999"><path
           inkscape:connector-curvature="0"
           id="path853"
           d="m 111.91965,78.530087 1.59286,1.814443 1.91145,-3.895722 0.0885,3.362056 2.5132,-0.818269 -0.79644,1.743285 2.69018,0.195671 -1.85834,1.725506 2.5132,1.405302 -2.84947,0.14231 1.13269,3.095228 -2.77867,-1.903387 -0.12388,3.23753 -1.96454,-2.721662 -0.69025,3.824563"
           style="fill:#e6e6e6;stroke:#000000;stroke-width:0.1816939px;stroke-linecap:butt;stroke-linejoin:miter;stroke-opacity:1" /><path
           inkscape:connector-curvature="0"
           id="path855"
           d="m 100.20321,83.564273 3.04416,-0.355772 v 0.320195 c 0,0 1.78754,-0.106727 4.19454,-1.280779 2.40701,-1.17405 3.92909,-3.504371 3.92909,-3.504371 l 1.29199,10.762142 c 0,0 -2.42471,-1.77887 -4.81401,-2.383686 -2.38931,-0.604809 -4.19455,-0.32019 -4.19455,-0.32019 l 0.0531,0.409137 -0.14158,0.05333 0.35397,4.909661 -1.2035,0.106731 -0.93802,-4.838508 -1.04421,0.142314 c 0,0 -0.44247,-0.800495 -0.60175,-2.116854 -0.159288,-1.316361 0.0708,-1.903389 0.0708,-1.903389 z"
           style="fill:#999999;stroke:#000000;stroke-width:0.1816939px;stroke-linecap:butt;stroke-linejoin:miter;stroke-opacity:1" /></g></g></g></svg>