<?xml version="1.0" encoding="UTF-8" standalone="no"?>
<!-- Created with Inkscape (http://www.inkscape.org/) -->

<svg
   xmlns:dc="http://purl.org/dc/elements/1.1/"
   xmlns:cc="http://creativecommons.org/ns#"
   xmlns:rdf="http://www.w3.org/1999/02/22-rdf-syntax-ns#"
   xmlns:svg="http://www.w3.org/2000/svg"
   xmlns="http://www.w3.org/2000/svg"
   xmlns:sodipodi="http://sodipodi.sourceforge.net/DTD/sodipodi-0.dtd"
   xmlns:inkscape="http://www.inkscape.org/namespaces/inkscape"
   version="1.1"
   id="svg2"
   xml:space="preserve"
   width="21.333332"
   height="21.333332"
   viewBox="0 0 21.333332 21.333332"
   sodipodi:docname="gnotify_mono.svg"
   inkscape:version="0.92.4 (f8dce91, 2019-08-02)"><metadata
     id="metadata8"><rdf:RDF><cc:Work
         rdf:about=""><dc:format>image/svg+xml</dc:format><dc:type
           rdf:resource="http://purl.org/dc/dcmitype/StillImage" /><dc:title></dc:title></cc:Work></rdf:RDF></metadata><defs
     id="defs6"><clipPath
       clipPathUnits="userSpaceOnUse"
       id="clipPath18"><path
         d="M 0,16 H 16 V 0 H 0 Z"
         id="path16"
         inkscape:connector-curvature="0" /></clipPath><clipPath
       clipPathUnits="userSpaceOnUse"
       id="clipPath48"><path
         d="M 0,16 H 16 V 0 H 0 Z"
         id="path46"
         inkscape:connector-curvature="0" /></clipPath><clipPath
       clipPathUnits="userSpaceOnUse"
       id="clipPath64"><path
         d="M 0,16 H 16 V 0 H 0 Z"
         id="path62"
         inkscape:connector-curvature="0" /></clipPath><clipPath
       clipPathUnits="userSpaceOnUse"
       id="clipPath84"><path
         d="M 0,16 H 16 V 0 H 0 Z"
         id="path82"
         inkscape:connector-curvature="0" /></clipPath><clipPath
       clipPathUnits="userSpaceOnUse"
       id="clipPath114"><path
         d="M 0,16 H 16 V 0 H 0 Z"
         id="path112"
         inkscape:connector-curvature="0" /></clipPath><clipPath
       clipPathUnits="userSpaceOnUse"
       id="clipPath126"><path
         d="M 0,16 H 16 V 0 H 0 Z"
         id="path124"
         inkscape:connector-curvature="0" /></clipPath><clipPath
       clipPathUnits="userSpaceOnUse"
       id="clipPath138"><path
         d="M 0,16 H 16 V 0 H 0 Z"
         id="path136"
         inkscape:connector-curvature="0" /></clipPath><clipPath
       clipPathUnits="userSpaceOnUse"
       id="clipPath182"><path
         d="M 0,16 H 16 V 0 H 0 Z"
         id="path180"
         inkscape:connector-curvature="0" /></clipPath><clipPath
       clipPathUnits="userSpaceOnUse"
       id="presentation_clip_path"><rect
         id="rect2"
         height="27940"
         width="21590"
         y="0"
         x="0" /></clipPath></defs><sodipodi:namedview
     pagecolor="#ffffff"
     bordercolor="#666666"
     borderopacity="1"
     objecttolerance="10"
     gridtolerance="10"
     guidetolerance="10"
     inkscape:pageopacity="0"
     inkscape:pageshadow="2"
     inkscape:window-width="1920"
     inkscape:window-height="1163"
     id="namedview4"
     showgrid="false"
     inkscape:zoom="21.714479"
     inkscape:cx="8.0963115"
     inkscape:cy="15.589715"
     inkscape:window-x="0"
     inkscape:window-y="0"
     inkscape:window-maximized="1"
     inkscape:current-layer="layer1" /><g
     id="g10"
     inkscape:groupmode="layer"
     inkscape:label="16px_icons"
     transform="matrix(1.3333333,0,0,-1.3333333,0,21.333333)"><g
       id="g4726"
       transform="matrix(0.66772581,0,0,-0.66916921,-0.05204622,15.997438)"><g
         transform="translate(-98.076089,-72.38934)"
         id="layer1"
         inkscape:label="Ebene 1"
         style="fill:#999999"><path
           inkscape:connector-curvature="0"
           id="path853"
           d="m 111.81356,76.86277 1.81366,2.065961 2.17641,-4.435746 0.10077,3.828103 2.86158,-0.931697 -0.90685,1.984938 3.0631,0.222795 -2.11595,1.964695 2.86158,1.600105 -3.24446,0.162036 1.28971,3.524288 -3.16385,-2.167233 -0.14106,3.686315 -2.23686,-3.098938 -0.78594,4.354723"
           style="fill:#e6e6e6;stroke:#000000;stroke-width:0.20688024px;stroke-linecap:butt;stroke-linejoin:miter;stroke-opacity:1" /><path
           inkscape:connector-curvature="0"
           id="path855"
           d="m 98.472978,82.594793 3.466152,-0.405089 v 0.364581 c 0,0 2.03532,-0.121521 4.77598,-1.458321 2.74067,-1.336796 4.47374,-3.990145 4.47374,-3.990145 l 1.47108,12.253987 c 0,0 -2.76082,-2.025457 -5.48133,-2.714113 -2.7205,-0.688647 -4.77599,-0.364575 -4.77599,-0.364575 l 0.0604,0.465853 -0.1612,0.06073 0.40303,5.590236 -1.37032,0.121527 -1.06805,-5.50922 -1.188964,0.16204 c 0,0 -0.503806,-0.911459 -0.685166,-2.410291 -0.181369,-1.498835 0.08062,-2.167237 0.08062,-2.167237 z"
           style="fill:#999999;stroke:#000000;stroke-width:0.20688024px;stroke-linecap:butt;stroke-linejoin:miter;stroke-opacity:1" /></g></g></g></svg>